<?xml version="1.0" standalone="no"?>
<!DOCTYPE svg PUBLIC "-//W3C//DTD SVG 20010904//EN"
 "http://www.w3.org/TR/2001/REC-SVG-20010904/DTD/svg10.dtd">
<svg version="1.0" xmlns="http://www.w3.org/2000/svg"
 width="500.000000pt" height="500.000000pt" viewBox="0 0 500.000000 500.000000"
 preserveAspectRatio="xMidYMid meet">
<metadata>
Created by potrace 1.14, written by Peter Selinger 2001-2017
</metadata>
<g transform="translate(0.000000,500.000000) scale(0.100000,-0.100000)"
fill="#000000" stroke="none">
<path d="M1860 4040 l0 -900 -900 0 -900 0 0 -1540 0 -1540 2174 0 2174 0 80
23 c106 31 182 77 267 162 129 129 185 265 185 447 0 59 -7 126 -16 162 -33
130 -117 259 -220 340 -63 49 -172 106 -205 106 -11 0 -46 7 -76 16 -129 37
-361 -10 -484 -98 -64 -46 -202 -117 -280 -144 -305 -104 -609 108 -609 426 0
182 94 329 260 409 l75 36 778 3 777 2 0 520 c1 286 1 567 1 625 0 58 0 497
-1 975 l0 870 -1540 0 -1540 0 0 -900z m2062 -117 l838 -838 0 -477 0 -478
-672 0 c-756 0 -740 1 -882 -72 -154 -80 -281 -243 -321 -409 -19 -82 -19
-226 0 -308 20 -85 84 -204 145 -274 63 -70 170 -142 263 -176 64 -23 87 -26
202 -26 72 0 146 4 165 9 19 4 56 10 83 13 26 3 47 9 47 14 0 5 7 9 15 9 8 0
15 4 15 8 0 5 20 17 45 28 25 10 45 21 45 25 0 4 10 11 22 15 12 3 40 24 62
46 23 22 75 57 116 76 65 32 86 37 167 40 162 7 292 -52 387 -178 73 -97 107
-251 81 -371 -31 -141 -147 -271 -293 -328 l-67 -26 -2072 -3 -2073 -2 0 1360
0 1360 900 0 900 0 0 900 0 900 522 0 523 0 837 -837z m838 152 c0 -377 -1
-685 -3 -685 -1 0 -310 308 -687 685 l-685 685 688 0 687 0 0 -685z"/>
<path d="M172 4909 c-44 -22 -74 -56 -92 -105 -8 -19 -11 -254 -10 -738 l0
-710 26 -43 c14 -25 43 -53 68 -68 l43 -25 713 0 c709 0 714 0 758 21 30 15
54 37 73 68 l29 46 -2 725 -3 726 -24 36 c-13 19 -40 46 -59 59 l-36 24 -720
3 c-717 2 -721 2 -764 -19z m1371 -172 c65 -42 62 -11 62 -662 0 -651 3 -620
-62 -662 -25 -17 -70 -18 -618 -18 -548 0 -593 1 -618 18 -64 42 -62 16 -65
617 -2 300 0 569 3 598 8 64 43 109 95 122 19 5 292 8 605 7 527 -2 573 -3
598 -20z"/>
</g>
</svg>
